<?xml version="1.0" encoding="UTF-8" standalone="no"?>
<!-- Created with Inkscape (http://www.inkscape.org/) -->
<svg
   xmlns:dc="http://purl.org/dc/elements/1.1/"
   xmlns:cc="http://web.resource.org/cc/"
   xmlns:rdf="http://www.w3.org/1999/02/22-rdf-syntax-ns#"
   xmlns:svg="http://www.w3.org/2000/svg"
   xmlns="http://www.w3.org/2000/svg"
   xmlns:sodipodi="http://sodipodi.sourceforge.net/DTD/sodipodi-0.dtd"
   xmlns:inkscape="http://www.inkscape.org/namespaces/inkscape"
   version="1.0"
   width="16"
   height="16"
   viewBox="0 0 600 599.99902"
   id="Layer_1"
   xml:space="preserve"
   sodipodi:version="0.32"
   inkscape:version="0.45"
   sodipodi:docname="Interstate Route 2-Digit Template.svg"
   sodipodi:docbase="C:\Documents and Settings\ltljltlj\Desktop\Signs\Interstate Shields"
   inkscape:output_extension="org.inkscape.output.svg.inkscape"
   sodipodi:modified="true"><metadata
   id="metadata36"><rdf:RDF><cc:Work
       rdf:about=""><dc:format>image/svg+xml</dc:format><dc:type
         rdf:resource="http://purl.org/dc/dcmitype/StillImage" /></cc:Work></rdf:RDF></metadata><sodipodi:namedview
   inkscape:window-height="968"
   inkscape:window-width="1280"
   inkscape:pageshadow="2"
   inkscape:pageopacity="0.0"
   guidetolerance="10.0"
   gridtolerance="10.0"
   objecttolerance="10.0"
   borderopacity="1.0"
   bordercolor="#666666"
   pagecolor="#ffffff"
   id="base"
   width="601px"
   height="601px"
   inkscape:zoom="1.2845255"
   inkscape:cx="300.49997"
   inkscape:cy="299.49944"
   inkscape:window-x="-4"
   inkscape:window-y="-4"
   inkscape:current-layer="Layer_1" /><defs
   id="defs1659">
	
	
	
	
</defs>
<g
   transform="matrix(0.9983361,0,0,0.9983377,0.4991681,0.4986858)"
   style="fill:#ffffff;fill-opacity:1;stroke:#000000;stroke-width:0.99999923;stroke-miterlimit:4;stroke-dasharray:none;stroke-opacity:1"
   id="g1600">
		<path
   id="path1602"
   style="fill:#ffffff;fill-opacity:1;stroke:#000000;stroke-width:0.99999923;stroke-miterlimit:4;stroke-dasharray:none;stroke-opacity:1"
   d="M 80.75293,0 C 115.42871,10.583496 152.23779,16.276856 190.37695,16.276856 C 228.51563,16.276856 265.32422,10.583496 300,0.0004883 C 334.67578,10.583496 371.48438,16.276856 409.62305,16.276856 C 447.76172,16.276856 484.57129,10.583496 519.24707,0 C 569.8125,63.908203 600,144.67822 600,232.5 C 600,413.92383 471.16992,565.25391 300,599.99902 C 128.83008,565.25391 0,413.92383 0,232.5 C 0,144.67822 30.187988,63.907715 80.75293,0 z " />
		
			<path
   id="path1604"
   style="fill:#ffffff;fill-opacity:1;stroke:#000000;stroke-width:0.99999923;stroke-linecap:round;stroke-linejoin:round;stroke-miterlimit:4;stroke-dasharray:none;stroke-opacity:1"
   d="M 80.75293,0 C 115.42871,10.583496 152.23779,16.276856 190.37695,16.276856 C 228.51563,16.276856 265.32422,10.583496 300,0.0004883 C 334.67578,10.583496 371.48438,16.276856 409.62305,16.276856 C 447.76172,16.276856 484.57129,10.583496 519.24707,0 C 569.8125,63.908203 600,144.67822 600,232.5 C 600,413.92383 471.16992,565.25391 300,599.99902 C 128.83008,565.25391 0,413.92383 0,232.5 C 0,144.67822 30.187988,63.907715 80.75293,0 z " />
	</g><g
   style="fill:#003f87;fill-opacity:1;stroke:none;stroke-opacity:1"
   transform="matrix(1.0070935,0,0,1.0102847,-2.1280324,-3.66885)"
   id="g1606">
		<path
   id="path1608"
   style="fill:#003f87;fill-opacity:1;stroke:none;stroke-opacity:1"
   d="M 15,232.5 C 15,200.521 19.169434,169.51611 26.994629,139.99902 L 573.00586,139.99902 C 580.83008,169.51611 585,200.521 585,232.5 C 585,405.60547 462.82617,550.17188 300,584.67676 C 137.17432,550.17188 15,405.60547 15,232.5 z " />
	</g><g
   style="fill:#af1e2d;fill-opacity:1;stroke:none;stroke-opacity:1"
   transform="matrix(1.0125461,0,0,1.0271486,-3.7638021,-3.1017481)"
   id="g1610">
		<path
   id="path1612"
   style="fill:#af1e2d;fill-opacity:1;stroke:none;stroke-opacity:1"
   d="M 31.324219,124.99902 C 43.579102,85.77832 62.362793,49.44043 86.402832,17.259766 C 119.50439,26.392578 154.37061,31.272461 190.37695,31.272461 C 228.4375,31.272461 265.22461,25.820801 300,15.654785 C 334.77539,25.820801 371.5625,31.272461 409.62305,31.272461 C 445.62891,31.272461 480.49609,26.392578 513.59766,17.259766 C 537.63672,49.44043 556.4209,85.77832 568.67578,124.99902 L 31.324219,124.99902 L 31.324219,124.99902 z " />
	</g>

</svg>